# Blender v2.78 (sub 0) OBJ File: ''
# www.blender.org
mtllib chr_lady2.mtl
o chr_lady2_Plane-tex.002
v 0.050000 0.550000 0.350000
v 0.050000 0.450000 0.250000
v 0.050000 0.450000 0.350000
v 0.050000 0.550000 0.250000
v -0.050000 0.650000 0.350000
v -0.050000 0.550000 0.250000
v -0.050000 0.550000 0.350000
v -0.050000 0.650000 0.250000
v 0.150000 1.050000 -0.050000
v 0.150000 0.950000 -0.150000
v 0.150000 0.950000 -0.050000
v 0.150000 1.050000 -0.150000
v 0.150000 0.550000 -0.150000
v 0.150000 0.450000 -0.250000
v 0.150000 0.450000 -0.150000
v 0.150000 0.550000 -0.250000
v 0.150000 0.150000 0.150000
v 0.150000 0.050000 0.050000
v 0.150000 0.050000 0.150000
v 0.150000 0.150000 -0.150000
v 0.150000 0.050000 -0.050000
v 0.150000 -0.050000 -0.050000
v 0.150000 0.050000 -0.150000
v 0.150000 -0.050000 0.050000
v -0.150000 0.950000 0.250000
v -0.150000 1.050000 0.250000
v -0.150000 1.050000 0.150000
v -0.150000 0.550000 0.150000
v -0.150000 0.650000 0.250000
v -0.150000 0.550000 0.250000
v -0.150000 0.950000 0.350000
v -0.150000 0.650000 0.350000
v -0.150000 0.050000 0.050000
v -0.150000 -0.050000 -0.050000
v -0.150000 -0.050000 0.050000
v -0.150000 0.050000 -0.050000
v -0.250000 1.050000 0.150000
v -0.250000 0.750000 0.050000
v -0.250000 0.550000 0.150000
v -0.250000 0.650000 0.050000
v -0.250000 1.050000 -0.150000
v -0.250000 0.550000 0.050000
v -0.250000 0.750000 -0.050000
v -0.250000 0.150000 0.050000
v -0.250000 0.550000 -0.050000
v -0.250000 0.550000 -0.150000
v -0.250000 0.150000 0.150000
v -0.250000 0.650000 -0.050000
v -0.250000 0.050000 0.150000
v -0.250000 0.550000 0.250000
v -0.250000 0.050000 -0.150000
v -0.250000 0.150000 0.250000
v -0.250000 0.150000 -0.150000
v -0.250000 0.150000 -0.050000
v -0.250000 0.150000 -0.250000
v -0.250000 0.550000 -0.250000
v -0.350000 0.750000 0.050000
v -0.350000 0.650000 -0.050000
v -0.350000 0.650000 0.050000
v -0.350000 0.750000 -0.050000
v -0.350000 0.550000 0.050000
v -0.350000 0.150000 -0.050000
v -0.350000 0.150000 0.050000
v -0.350000 0.550000 -0.050000
v 0.350000 0.650000 -0.150000
v 0.350000 0.550000 -0.250000
v 0.350000 0.550000 -0.150000
v 0.350000 0.650000 -0.250000
v -0.050000 1.050000 -0.050000
v -0.050000 0.950000 -0.150000
v -0.050000 0.950000 -0.050000
v -0.050000 1.050000 -0.150000
v -0.050000 0.550000 -0.150000
v -0.050000 0.450000 -0.250000
v -0.050000 0.450000 -0.150000
v -0.050000 0.550000 -0.250000
v -0.050000 0.150000 0.150000
v -0.050000 0.050000 0.050000
v -0.050000 0.050000 0.150000
v -0.050000 0.150000 -0.150000
v -0.050000 0.050000 -0.050000
v -0.050000 -0.050000 -0.050000
v -0.050000 0.050000 -0.150000
v -0.050000 -0.050000 0.050000
v 0.250000 1.050000 0.250000
v 0.250000 0.950000 0.150000
v 0.250000 0.950000 0.250000
v 0.250000 1.050000 0.150000
v 0.250000 0.950000 0.350000
v 0.250000 0.550000 0.250000
v 0.250000 0.550000 0.350000
v 0.250000 0.050000 0.050000
v 0.250000 -0.050000 -0.050000
v 0.250000 -0.050000 0.050000
v 0.250000 0.050000 -0.050000
v 0.350000 1.050000 0.150000
v 0.350000 0.950000 -0.150000
v 0.350000 0.950000 0.150000
v 0.350000 1.050000 -0.150000
v 0.350000 0.950000 0.250000
v 0.350000 0.550000 0.150000
v 0.350000 0.550000 0.250000
v 0.350000 0.650000 0.050000
v 0.350000 0.550000 -0.050000
v 0.350000 0.550000 0.050000
v 0.350000 0.650000 -0.050000
v 0.350000 0.350000 -0.150000
v 0.350000 0.150000 -0.250000
v 0.350000 0.150000 -0.150000
v 0.350000 0.350000 -0.050000
v 0.350000 0.150000 -0.050000
v 0.350000 0.050000 -0.150000
v 0.350000 0.150000 0.050000
v 0.350000 0.050000 0.150000
v 0.350000 0.150000 0.150000
v 0.350000 0.450000 0.050000
v 0.350000 0.450000 0.250000
v 0.350000 0.150000 0.250000
v 0.350000 0.550000 0.350000
v 0.350000 0.450000 0.350000
v 0.450000 0.950000 0.150000
v 0.450000 0.650000 0.050000
v 0.450000 0.550000 0.150000
v 0.450000 0.550000 0.050000
v 0.450000 0.950000 -0.150000
v 0.450000 0.650000 -0.050000
v 0.450000 0.650000 -0.150000
v 0.450000 0.550000 -0.150000
v 0.450000 0.550000 -0.250000
v 0.450000 0.550000 -0.050000
v 0.450000 0.650000 -0.250000
v 0.450000 0.350000 -0.150000
v 0.450000 0.350000 -0.050000
v 0.450000 0.450000 0.050000
v 0.450000 0.150000 0.050000
v 0.450000 0.150000 -0.050000
v 0.450000 0.550000 0.250000
v 0.450000 0.450000 0.150000
v 0.450000 0.450000 0.250000
v 0.550000 0.550000 0.150000
v 0.550000 0.450000 0.050000
v 0.550000 0.450000 0.150000
v 0.550000 0.550000 0.050000
vt 0.1001 0.4706
vt 0.1999 0.5293
vt 0.1999 0.4706
vt 0.1001 0.4707
vt 0.1001 0.5294
vt 0.1999 0.5294
vt 0.1001 0.4706
vt 0.1999 0.5293
vt 0.1999 0.4706
vt 0.1001 0.4707
vt 0.1001 0.5294
vt 0.1999 0.5294
vt 0.1001 0.4706
vt 0.1999 0.5293
vt 0.1999 0.4706
vt 0.1001 0.4707
vt 0.1001 0.5294
vt 0.1999 0.5294
vt 0.7001 0.7647
vt 0.7999 0.8234
vt 0.7999 0.7647
vt 0.7001 0.7648
vt 0.7001 0.8235
vt 0.7999 0.8235
vt 0.1001 0.8824
vt 0.1999 0.9411
vt 0.1999 0.8824
vt 0.1001 0.9411
vt 0.1999 0.9020
vt 0.1002 0.9411
vt 0.1999 0.9118
vt 0.1999 0.8824
vt 0.8001 0.0589
vt 0.8001 0.1176
vt 0.8999 0.1176
vt 0.1999 0.9411
vt 0.1999 0.8824
vt 0.8999 0.0589
vt 0.1999 0.4706
vt 0.1001 0.4706
vt 0.1001 0.5293
vt 0.4332 0.5294
vt 0.3000 0.4707
vt 0.2667 0.5294
vt 0.5999 0.1764
vt 0.5999 0.1177
vt 0.5002 0.1960
vt 0.6001 0.4118
vt 0.6999 0.4705
vt 0.6999 0.4118
vt 0.1001 0.4707
vt 0.1001 0.5294
vt 0.1999 0.5294
vt 0.1001 0.4706
vt 0.1999 0.5293
vt 0.1999 0.4706
vt 0.8001 0.0589
vt 0.8999 0.1176
vt 0.8999 0.0589
vt 0.8001 0.1176
vt 0.2668 0.4706
vt 0.3667 0.5293
vt 0.4333 0.4706
vt 0.5001 0.1178
vt 0.5001 0.1765
vt 0.5998 0.2352
vt 0.2499 0.7059
vt 0.2499 0.7646
vt 0.1001 0.7255
vt 0.6001 0.4705
vt 0.6999 0.4705
vt 0.6999 0.4118
vt 0.2002 0.2352
vt 0.4999 0.1765
vt 0.4999 0.1177
vt 0.7999 0.8236
vt 0.7001 0.8236
vt 0.7001 0.9019
vt 0.6001 0.4118
vt 0.6999 0.4705
vt 0.6999 0.4118
vt 0.5000 0.4706
vt 0.2002 0.5294
vt 0.6999 0.5294
vt 0.7999 0.9019
vt 0.6001 0.4705
vt 0.6500 0.4118
vt 0.6001 0.4118
vt 0.6999 0.4705
vt 0.1999 0.8824
vt 0.1001 0.8824
vt 0.1001 0.9411
vt 0.7999 0.8236
vt 0.7001 0.8236
vt 0.7001 0.9019
vt 0.6001 0.4118
vt 0.6999 0.4118
vt 0.1001 0.9020
vt 0.1999 0.9411
vt 0.7999 0.9019
vt 0.7999 0.8236
vt 0.7001 0.8236
vt 0.7001 0.9019
vt 0.1001 0.8824
vt 0.1001 0.9118
vt 0.1998 0.9411
vt 0.7999 0.8236
vt 0.7001 0.9019
vt 0.7999 0.9019
vt 0.7999 0.9019
vt 0.1001 0.8824
vt 0.1001 0.9411
vt 0.7001 0.8236
vt 0.4001 0.8824
vt 0.4999 0.9411
vt 0.4999 0.8824
vt 0.4001 0.9411
vt 0.7999 0.7254
vt 0.7001 0.6471
vt 0.7999 0.6471
vt 0.7001 0.7254
vt 0.1001 0.4706
vt 0.1999 0.5293
vt 0.1999 0.4706
vt 0.1001 0.4707
vt 0.1001 0.5294
vt 0.1999 0.5294
vt 0.1999 0.5293
vt 0.1001 0.4706
vt 0.1999 0.4706
vt 0.1001 0.5294
vt 0.1001 0.4707
vt 0.1999 0.5294
vt 0.7999 0.8234
vt 0.7001 0.7647
vt 0.7999 0.7647
vt 0.7001 0.8235
vt 0.7001 0.7648
vt 0.7999 0.8235
vt 0.1999 0.9411
vt 0.1001 0.8824
vt 0.1999 0.8824
vt 0.1001 0.9411
vt 0.1999 0.9020
vt 0.1999 0.9118
vt 0.1002 0.9411
vt 0.1999 0.8824
vt 0.8001 0.1176
vt 0.8001 0.0589
vt 0.8999 0.1176
vt 0.1999 0.9411
vt 0.1999 0.8824
vt 0.8999 0.0589
vt 0.1999 0.5293
vt 0.1001 0.4706
vt 0.1999 0.4706
vt 0.1001 0.5294
vt 0.1001 0.4707
vt 0.1999 0.5294
vt 0.1999 0.5293
vt 0.1001 0.4706
vt 0.1999 0.4706
vt 0.1001 0.5294
vt 0.1001 0.4707
vt 0.1999 0.5294
vt 0.8999 0.1176
vt 0.8001 0.0589
vt 0.8999 0.0589
vt 0.8001 0.1176
vt 0.1999 0.5293
vt 0.1001 0.4706
vt 0.1999 0.4706
vt 0.1001 0.5294
vt 0.1001 0.4707
vt 0.1999 0.5294
vt 0.1999 0.5293
vt 0.1001 0.4706
vt 0.1999 0.4706
vt 0.1001 0.5294
vt 0.1001 0.4707
vt 0.1999 0.5294
vt 0.6999 0.4705
vt 0.6001 0.4118
vt 0.6999 0.4118
vt 0.6001 0.4705
vt 0.7001 0.7647
vt 0.7999 0.7647
vt 0.7001 0.8234
vt 0.7999 0.8627
vt 0.7001 0.9019
vt 0.7001 0.8236
vt 0.7001 0.9411
vt 0.7999 0.8236
vt 0.7999 0.9411
vt 0.7001 0.8236
vt 0.7999 0.8236
vt 0.7001 0.9411
vt 0.7999 0.9411
vt 0.1001 0.9411
vt 0.1001 0.8824
vt 0.1999 0.9411
vt 0.1001 0.9118
vt 0.1001 0.8824
vt 0.1998 0.9411
vt 0.1001 0.9020
vt 0.1999 0.8824
vt 0.1001 0.8824
vt 0.1001 0.9411
vt 0.7001 0.9117
vt 0.7001 0.8236
vt 0.7999 0.9117
vt 0.7999 0.8236
vt 0.7500 0.9117
vt 0.7001 0.9117
vt 0.7999 0.9117
vt 0.1999 0.5293
vt 0.1001 0.4706
vt 0.1999 0.4706
vt 0.1001 0.5294
vt 0.1001 0.4707
vt 0.1999 0.5294
vt 0.1750 0.5293
vt 0.1001 0.4706
vt 0.1999 0.4706
vt 0.1999 0.5294
vt 0.1001 0.5294
vt 0.1999 0.4707
vt 0.3001 0.7646
vt 0.3001 0.6765
vt 0.4499 0.7059
vt 0.4499 0.7059
vt 0.3002 0.6472
vt 0.4499 0.7646
vt 0.1999 0.5294
vt 0.1001 0.5294
vt 0.1999 0.4707
vt 0.1001 0.5294
vt 0.1001 0.4707
vt 0.1999 0.5294
vt 0.1999 0.5293
vt 0.1001 0.4706
vt 0.1999 0.4706
vt 0.1999 0.5293
vt 0.1001 0.4706
vt 0.1999 0.4706
vt 0.1001 0.5294
vt 0.1001 0.4707
vt 0.1999 0.5294
vt 0.1001 0.5294
vt 0.1001 0.4707
vt 0.1999 0.5294
vt 0.1999 0.5293
vt 0.1001 0.4706
vt 0.1999 0.4706
vt 0.7999 0.7059
vt 0.7000 0.6471
vt 0.7000 0.7646
vt 0.7999 0.7647
vt 0.7001 0.8234
vt 0.7001 0.7647
vt 0.6334 0.4705
vt 0.6001 0.4118
vt 0.6999 0.4118
vt 0.6999 0.4705
vt 0.6001 0.4705
vt 0.1999 0.5293
vt 0.1001 0.4706
vt 0.1999 0.4706
vt 0.1001 0.5294
vt 0.1001 0.4707
vt 0.1999 0.5294
vt 0.1999 0.5293
vt 0.1001 0.4706
vt 0.1999 0.4706
vt 0.1001 0.5294
vt 0.1001 0.4707
vt 0.1999 0.5294
vt 0.1500 0.9411
vt 0.1001 0.8824
vt 0.1001 0.9411
vt 0.1001 0.9411
vt 0.1999 0.9020
vt 0.1999 0.9118
vt 0.1002 0.9411
vt 0.1999 0.8824
vt 0.1500 0.8824
vt 0.1001 0.8824
vt 0.1500 0.9411
vt 0.1001 0.8824
vt 0.1001 0.9020
vt 0.1001 0.9411
vt 0.1999 0.9411
vt 0.1001 0.9118
vt 0.1001 0.8824
vt 0.1500 0.8824
vt 0.1001 0.9411
vt 0.1001 0.8824
vt 0.1999 0.8824
vt 0.8001 0.0589
vt 0.8001 0.1176
vt 0.8001 0.0589
vt 0.8001 0.1176
vt 0.6999 0.4705
vt 0.6001 0.4118
vt 0.6999 0.4118
vt 0.6001 0.4705
vt 0.1334 0.9411
vt 0.1001 0.8824
vt 0.1999 0.8824
vt 0.1500 0.9411
vt 0.1001 0.9411
vt 0.1998 0.8825
vt 0.1001 0.9411
vt 0.1999 0.9411
vt 0.1999 0.9411
vt 0.1001 0.9411
vt 0.1999 0.9411
vt 0.1999 0.8824
vt 0.1001 0.8824
vt 0.1500 0.8824
vt 0.1998 0.9411
vt 0.1334 0.8824
vt 0.1999 0.9411
vt 0.1001 0.9411
vt 0.1001 0.8824
vt 0.1999 0.8824
vt 0.1001 0.8824
vt 0.1999 0.8824
vt 0.6999 0.4705
vt 0.6001 0.4118
vt 0.6999 0.4118
vt 0.6001 0.4705
vt 0.1999 0.5293
vt 0.1001 0.4706
vt 0.1999 0.4706
vt 0.1001 0.5294
vt 0.1001 0.4707
vt 0.1999 0.5294
vt 0.1999 0.5293
vt 0.1001 0.4706
vt 0.1999 0.4706
vt 0.1001 0.5294
vt 0.1001 0.4707
vt 0.1999 0.5294
vt 0.1001 0.5294
vt 0.1001 0.4707
vt 0.1999 0.5294
vt 0.1001 0.5000
vt 0.1999 0.4706
vt 0.1001 0.4706
vt 0.1001 0.5293
vt 0.1001 0.4706
vt 0.1001 0.5294
vt 0.1001 0.4707
vt 0.1001 0.4706
vt 0.1001 0.5294
vt 0.1001 0.4707
vt 0.4999 0.9411
vt 0.4001 0.8824
vt 0.4999 0.8824
vt 0.4001 0.9411
vt 0.4001 0.8824
vt 0.4001 0.9411
vt 0.7001 0.7647
vt 0.7001 0.7648
vt 0.7001 0.8235
vt 0.1999 0.5293
vt 0.7999 0.8234
vt 0.7999 0.7647
vt 0.7001 0.7648
vt 0.7001 0.8235
vt 0.7999 0.8235
vt 0.7999 0.8234
vt 0.7999 0.7647
vt 0.7001 0.7648
vt 0.7001 0.8235
vt 0.7999 0.8235
vt 0.7999 0.8234
vt 0.7999 0.7647
vt 0.7999 0.8235
vt 0.7001 0.7647
vt 0.7999 0.8234
vt 0.7999 0.7647
vt 0.7001 0.7648
vt 0.7001 0.8235
vt 0.7999 0.8235
vt 0.7001 0.7647
vt 0.7999 0.8234
vt 0.7999 0.7647
vt 0.7001 0.7648
vt 0.7001 0.8235
vt 0.7999 0.8235
vt 0.1999 0.5293
vt 0.1999 0.4706
vt 0.1999 0.5294
vt 0.4001 0.8824
vt 0.4999 0.9411
vt 0.4999 0.8824
vt 0.4001 0.9411
vt 0.1001 0.4707
vt 0.1999 0.5293
vt 0.1999 0.4706
vt 0.1999 0.5294
vt 0.6001 0.4118
vt 0.6999 0.4705
vt 0.6999 0.4118
vt 0.6001 0.4705
vt 0.1500 0.4706
vt 0.1998 0.5293
vt 0.1999 0.5098
vt 0.1250 0.5293
vt 0.1999 0.4706
vt 0.1001 0.4706
vt 0.1999 0.5294
vt 0.1999 0.4707
vt 0.1999 0.5294
vt 0.1002 0.5294
vt 0.1666 0.5294
vt 0.1999 0.4707
vt 0.1999 0.4706
vt 0.1999 0.5293
vt 0.1500 0.4707
vt 0.1001 0.5098
vt 0.1999 0.5294
vt 0.1001 0.4706
vt 0.1999 0.5293
vt 0.1999 0.4706
vt 0.6999 0.4705
vt 0.6001 0.4705
vt 0.8999 0.1176
vt 0.8001 0.1176
vt 0.8999 0.1176
vt 0.8001 0.1176
vt 0.4999 0.9411
vt 0.4001 0.9411
vt 0.7001 0.6471
vt 0.7001 0.7254
vt 0.1999 0.5293
vt 0.1999 0.4706
vt 0.1001 0.5294
vt 0.1999 0.5294
vt 0.1999 0.5293
vt 0.1001 0.5294
vt 0.1999 0.5294
vt 0.1001 0.4706
vt 0.1999 0.5293
vt 0.1999 0.4706
vt 0.1001 0.4707
vt 0.1001 0.5294
vt 0.1999 0.5294
vt 0.1001 0.4706
vt 0.1999 0.5293
vt 0.1999 0.4706
vt 0.1001 0.4707
vt 0.1001 0.5294
vt 0.1999 0.5294
vt 0.4333 0.5293
vt 0.2667 0.4707
vt 0.1999 0.5293
vt 0.1001 0.4707
vt 0.1001 0.5294
vt 0.1999 0.5294
vt 0.1001 0.4706
vt 0.1999 0.5293
vt 0.1999 0.4706
vt 0.1001 0.4707
vt 0.1001 0.5294
vt 0.1999 0.5294
vt 0.7001 0.9117
vt 0.7500 0.8236
vt 0.7999 0.9117
vt 0.7001 0.8432
vt 0.7666 0.8236
vt 0.7001 0.8236
vt 0.7999 0.8236
vt 0.7002 0.7648
vt 0.7500 0.8235
vt 0.7998 0.8235
vt 0.7001 0.8236
vt 0.6001 0.4118
vt 0.6999 0.4705
vt 0.7001 0.7648
vt 0.7001 0.8235
vt 0.7999 0.8235
vt 0.6001 0.4705
vt 0.1001 0.4706
vt 0.1999 0.5293
vt 0.1001 0.4707
vt 0.1001 0.5294
vt 0.1999 0.5294
vt 0.1334 0.5293
vt 0.1001 0.5294
vt 0.1999 0.5294
vt 0.1999 0.4707
vt 0.1001 0.5294
vt 0.1999 0.5294
vt 0.1666 0.4706
vt 0.1002 0.4706
vt 0.1999 0.5293
vt 0.1999 0.4853
vt 0.1001 0.4706
vt 0.1001 0.5293
vt 0.1750 0.4707
vt 0.1001 0.5294
vt 0.1999 0.5294
vt 0.1999 0.5293
vt 0.1999 0.5293
vt 0.1001 0.4706
vt 0.1999 0.4706
vt 0.1001 0.4707
vt 0.1999 0.5294
vt 0.5001 0.6176
vt 0.5001 0.5295
vt 0.6998 0.6176
vt 0.1999 0.5293
vt 0.1001 0.4706
vt 0.1999 0.4706
vt 0.5001 0.2941
vt 0.6999 0.2353
vt 0.6999 0.4705
vt 0.1001 0.4707
vt 0.6001 0.4118
vt 0.6001 0.4118
vt 0.6999 0.4118
vt 0.6001 0.4705
vt 0.6999 0.4118
vt 0.6999 0.2353
vt 0.5001 0.2353
vt 0.6001 0.4705
vt 0.6001 0.4118
vt 0.6999 0.4705
vt 0.3000 0.3530
vt 0.6999 0.4706
vt 0.2001 0.4706
vt 0.6999 0.4118
vt 0.1001 0.4707
vt 0.1999 0.9411
vt 0.1001 0.8824
vt 0.1999 0.8824
vt 0.1999 0.9411
vt 0.1001 0.8824
vt 0.1999 0.8824
vt 0.6999 0.4705
vt 0.6001 0.4118
vt 0.6999 0.4118
vt 0.8999 0.1176
vt 0.8001 0.0589
vt 0.8999 0.0589
vt 0.1999 0.5293
vt 0.1001 0.4706
vt 0.1001 0.5294
vt 0.1001 0.4707
vt 0.1999 0.5294
vt 0.8999 0.1176
vt 0.8001 0.0589
vt 0.8999 0.0589
vt 0.4001 0.8824
vt 0.4999 0.8824
vt 0.7999 0.7254
vt 0.7001 0.6471
vt 0.7999 0.6471
vt 0.7001 0.7254
vt 0.1001 0.4706
vt 0.1999 0.4706
vt 0.1001 0.4707
vt 0.7334 0.8236
vt 0.7001 0.9117
vt 0.7999 0.9117
vt 0.7500 0.8236
vt 0.7001 0.8236
vt 0.7999 0.9116
vt 0.7999 0.8432
vt 0.7999 0.8236
vt 0.7001 0.8432
vt 0.7999 0.9019
vt 0.7999 0.7648
vt 0.7001 0.7648
vt 0.1001 0.4706
vt 0.1999 0.4706
vt 0.1001 0.4707
vt 0.1999 0.5293
vt 0.1001 0.4706
vt 0.1999 0.4706
vt 0.1001 0.4707
vt 0.1999 0.5294
vn -1.0000 0.0000 0.0000
vn 1.0000 0.0000 0.0000
vn 0.0000 -1.0000 0.0000
vn 0.0000 1.0000 0.0000
vn 0.0000 0.0000 1.0000
vn 0.0000 0.0000 -1.0000
usemtl lambert0.002
s off
f 1/1/1 2/2/1 3/3/1
f 1/4/1 4/5/1 2/6/1
f 5/7/1 6/8/1 7/9/1
f 5/10/1 8/11/1 6/12/1
f 9/13/1 10/14/1 11/15/1
f 9/16/1 12/17/1 10/18/1
f 13/19/1 14/20/1 15/21/1
f 13/22/1 16/23/1 14/24/1
f 17/25/1 18/26/1 19/27/1
f 17/25/1 20/28/1 18/29/1
f 20/30/1 21/31/1 18/32/1
f 18/33/1 21/34/1 22/35/1
f 20/28/1 23/36/1 21/37/1
f 18/33/1 22/35/1 24/38/1
f 25/39/1 26/40/1 27/41/1
f 28/42/1 25/43/1 27/44/1
f 29/45/1 25/46/1 28/47/1
f 29/48/1 28/49/1 30/50/1
f 31/51/1 25/52/1 29/53/1
f 31/54/1 29/55/1 32/56/1
f 33/57/1 34/58/1 35/59/1
f 33/57/1 36/60/1 34/58/1
f 37/61/1 38/62/1 39/63/1
f 38/64/1 40/65/1 39/66/1
f 37/67/1 41/68/1 38/69/1
f 40/70/1 42/71/1 39/72/1
f 41/73/1 43/74/1 38/75/1
f 39/76/1 42/77/1 44/78/1
f 40/79/1 45/80/1 42/81/1
f 43/82/1 41/83/1 46/84/1
f 39/76/1 44/78/1 47/85/1
f 40/79/1 48/86/1 45/80/1
f 48/87/1 43/88/1 46/89/1
f 49/90/1 47/91/1 44/92/1
f 50/93/1 39/94/1 47/95/1
f 48/96/1 46/89/1 45/97/1
f 49/90/1 44/98/1 51/99/1
f 50/93/1 47/95/1 52/100/1
f 45/101/1 46/102/1 53/103/1
f 44/104/1 54/105/1 51/106/1
f 46/107/1 55/108/1 53/109/1
f 45/101/1 53/103/1 54/110/1
f 54/111/1 53/112/1 51/99/1
f 46/107/1 56/113/1 55/108/1
f 57/114/1 58/115/1 59/116/1
f 57/114/1 60/117/1 58/115/1
f 61/118/1 62/119/1 63/120/1
f 61/118/1 64/121/1 62/119/1
f 65/122/1 66/123/1 67/124/1
f 65/125/1 68/126/1 66/127/1
f 70/128/2 69/129/2 71/130/2
f 72/131/2 69/132/2 70/133/2
f 74/134/2 73/135/2 75/136/2
f 76/137/2 73/138/2 74/139/2
f 78/140/2 77/141/2 79/142/2
f 80/143/2 77/141/2 78/144/2
f 81/145/2 80/146/2 78/147/2
f 81/148/2 78/149/2 82/150/2
f 83/151/2 80/143/2 81/152/2
f 82/150/2 78/149/2 84/153/2
f 86/154/2 85/155/2 87/156/2
f 88/157/2 85/158/2 86/159/2
f 90/160/2 89/161/2 91/162/2
f 87/163/2 89/164/2 90/165/2
f 93/166/2 92/167/2 94/168/2
f 95/169/2 92/167/2 93/166/2
f 97/170/2 96/171/2 98/172/2
f 99/173/2 96/174/2 97/175/2
f 101/176/2 100/177/2 102/178/2
f 98/179/2 100/180/2 101/181/2
f 104/182/2 103/183/2 105/184/2
f 106/185/2 103/183/2 104/182/2
f 67/186/2 107/187/2 66/188/2
f 107/189/2 108/190/2 66/191/2
f 108/192/2 107/193/2 109/194/2
f 107/195/2 110/196/2 109/197/2
f 109/197/2 110/196/2 111/198/2
f 109/199/2 111/200/2 112/201/2
f 111/202/2 113/203/2 112/204/2
f 113/205/2 114/206/2 112/201/2
f 115/207/2 114/206/2 113/208/2
f 113/209/2 116/210/2 115/211/2
f 116/210/2 117/212/2 115/213/2
f 115/214/2 117/212/2 118/215/2
f 117/216/2 119/217/2 120/218/2
f 102/219/2 119/220/2 117/221/2
f 122/222/2 121/223/2 123/224/2
f 124/225/2 122/226/2 123/227/2
f 125/228/2 121/229/2 122/230/2
f 126/231/2 125/232/2 122/233/2
f 127/234/2 125/235/2 126/236/2
f 127/237/2 126/238/2 128/239/2
f 129/240/2 127/241/2 128/242/2
f 128/243/2 126/244/2 130/245/2
f 131/246/2 127/247/2 129/248/2
f 128/249/2 130/250/2 132/251/2
f 132/252/2 130/253/2 133/254/2
f 134/255/2 133/256/2 130/257/2
f 134/258/2 130/259/2 124/260/2
f 133/261/2 134/262/2 135/263/2
f 136/264/2 133/265/2 135/263/2
f 138/266/2 137/267/2 139/268/2
f 123/269/2 137/270/2 138/271/2
f 141/272/2 140/273/2 142/274/2
f 143/275/2 140/276/2 141/277/2
f 92/278/3 114/279/3 19/27/3
f 18/26/3 92/280/3 19/27/3
f 112/281/3 114/279/3 92/282/3
f 95/283/3 112/284/3 92/285/3
f 112/281/3 95/286/3 23/36/3
f 23/36/3 95/287/3 21/37/3
f 33/288/3 79/289/3 49/90/3
f 51/99/3 33/290/3 49/90/3
f 78/291/3 79/289/3 33/292/3
f 36/293/3 33/294/3 51/106/3
f 36/295/3 51/99/3 83/296/3
f 81/297/3 36/298/3 83/296/3
f 22/35/3 94/299/3 24/38/3
f 93/300/3 94/299/3 22/35/3
f 34/58/3 84/301/3 35/59/3
f 82/302/3 84/301/3 34/58/3
f 111/303/3 135/304/3 113/305/3
f 136/306/3 135/304/3 111/303/3
f 17/307/3 118/308/3 52/309/3
f 77/310/3 17/311/3 52/312/3
f 115/313/3 118/308/3 17/314/3
f 47/315/3 77/316/3 52/309/3
f 80/317/3 17/25/3 77/318/3
f 20/28/3 17/25/3 80/317/3
f 20/319/3 80/320/3 55/321/3
f 20/322/3 55/323/3 108/324/3
f 55/323/3 80/325/3 53/326/3
f 109/327/3 20/328/3 108/324/3
f 62/329/3 44/330/3 63/331/3
f 54/332/3 44/330/3 62/329/3
f 107/333/3 133/334/3 110/335/3
f 132/336/3 133/337/3 107/338/3
f 134/339/3 142/340/3 138/341/3
f 134/342/3 138/343/3 116/344/3
f 141/345/3 142/346/3 134/347/3
f 138/348/3 117/349/3 116/344/3
f 139/350/3 117/349/3 138/351/3
f 2/2/3 120/352/3 3/3/3
f 117/353/3 120/354/3 2/6/3
f 66/123/3 128/355/3 67/124/3
f 129/356/3 128/357/3 66/127/3
f 6/8/3 1/1/3 7/9/3
f 4/5/3 1/4/3 6/12/3
f 106/358/3 122/359/3 103/360/3
f 126/361/3 122/359/3 106/358/3
f 29/55/3 5/7/3 32/56/3
f 8/11/3 5/10/3 29/53/3
f 58/115/3 40/362/3 59/116/3
f 48/363/3 40/362/3 58/115/3
f 15/364/4 74/134/4 75/136/4
f 15/365/4 14/366/4 74/139/4
f 140/273/4 124/367/4 123/224/4
f 140/276/4 143/275/4 124/225/4
f 124/260/4 104/368/4 105/369/4
f 124/370/4 130/371/4 104/372/4
f 137/267/4 101/176/4 102/178/4
f 137/270/4 123/269/4 101/181/4
f 67/186/4 16/373/4 13/374/4
f 67/375/4 66/376/4 16/377/4
f 119/217/4 90/160/4 91/162/4
f 119/220/4 102/219/4 90/165/4
f 73/135/4 56/378/4 46/379/4
f 73/138/4 76/137/4 56/380/4
f 30/381/4 39/382/4 50/383/4
f 30/384/4 28/385/4 39/386/4
f 42/387/4 64/388/4 61/389/4
f 42/390/4 45/391/4 64/392/4
f 127/241/4 68/393/4 65/394/4
f 127/247/4 131/246/4 68/395/4
f 38/396/4 60/397/4 57/398/4
f 38/396/4 43/399/4 60/397/4
f 121/223/4 97/170/4 98/172/4
f 121/400/4 125/235/4 97/175/4
f 100/177/4 86/154/4 87/156/4
f 100/180/4 98/179/4 86/159/4
f 89/161/4 25/401/4 31/402/4
f 89/164/4 87/163/4 25/403/4
f 11/404/4 70/405/4 71/406/4
f 11/404/4 10/407/4 70/405/4
f 88/408/4 96/171/4 9/409/4
f 96/171/4 99/173/4 9/410/4
f 9/411/4 27/412/4 88/413/4
f 99/173/4 12/414/4 9/415/4
f 27/416/4 85/158/4 88/157/4
f 9/417/4 69/418/4 27/419/4
f 26/420/4 85/155/4 27/421/4
f 27/422/4 69/423/4 41/424/4
f 69/132/4 72/131/4 41/424/4
f 27/425/4 41/426/4 37/427/4
f 135/304/5 116/428/5 113/305/5
f 135/304/5 134/429/5 116/428/5
f 94/299/5 18/430/5 24/38/5
f 94/299/5 92/431/5 18/430/5
f 84/301/5 33/432/5 35/59/5
f 84/301/5 78/433/5 33/432/5
f 40/362/5 57/434/5 59/116/5
f 40/362/5 38/435/5 57/434/5
f 44/436/5 61/118/5 63/120/5
f 44/436/5 42/437/5 61/118/5
f 130/253/5 106/438/5 104/439/5
f 130/250/5 126/440/5 106/441/5
f 142/340/5 123/442/5 138/341/5
f 142/346/5 140/443/5 123/444/5
f 123/445/5 98/446/5 101/447/5
f 123/448/5 121/449/5 98/450/5
f 98/451/5 88/452/5 86/453/5
f 98/454/5 96/455/5 88/456/5
f 114/279/5 17/314/5 19/27/5
f 114/279/5 115/313/5 17/314/5
f 79/289/5 47/315/5 49/90/5
f 79/289/5 77/316/5 47/315/5
f 28/457/5 37/61/5 39/63/5
f 28/42/5 27/44/5 37/458/5
f 139/350/5 102/459/5 117/349/5
f 139/460/5 137/461/5 102/462/5
f 102/463/5 87/464/5 90/465/5
f 102/466/5 100/467/5 87/468/5
f 118/469/5 2/470/5 52/471/5
f 52/100/5 2/472/5 30/473/5
f 118/469/5 117/474/5 2/475/5
f 2/476/5 6/477/5 30/478/5
f 30/479/5 50/93/5 52/100/5
f 6/480/5 29/481/5 30/50/5
f 2/482/5 4/483/5 6/484/5
f 6/480/5 8/485/5 29/481/5
f 87/486/5 26/487/5 25/39/5
f 87/488/5 85/489/5 26/490/5
f 120/352/5 91/491/5 3/3/5
f 91/492/5 1/493/5 3/494/5
f 120/354/5 119/495/5 91/496/5
f 1/497/5 91/498/5 5/499/5
f 5/500/5 91/501/5 89/502/5
f 1/1/5 5/499/5 7/9/5
f 5/503/5 89/504/5 31/505/5
f 5/7/5 31/506/5 32/56/5
f 67/507/6 132/508/6 107/509/6
f 128/249/6 132/510/6 67/511/6
f 97/170/6 127/241/6 65/394/6
f 97/512/6 65/513/6 10/514/6
f 125/235/6 127/247/6 97/175/6
f 12/515/6 97/516/6 10/517/6
f 65/518/6 13/519/6 10/520/6
f 99/173/6 97/521/6 12/414/6
f 10/407/6 13/522/6 70/405/6
f 67/523/6 13/524/6 65/525/6
f 70/405/6 13/522/6 73/526/6
f 73/527/6 46/528/6 70/405/6
f 13/529/6 15/530/6 73/531/6
f 70/532/6 46/533/6 41/534/6
f 73/531/6 15/530/6 75/535/6
f 72/131/6 70/536/6 41/424/6
f 20/537/6 112/538/6 23/539/6
f 109/199/6 112/538/6 20/537/6
f 53/540/6 83/541/6 51/542/6
f 80/143/6 83/541/6 53/540/6
f 110/543/6 136/544/6 111/545/6
f 133/265/6 136/544/6 110/543/6
f 21/546/6 93/547/6 22/548/6
f 95/169/6 93/547/6 21/546/6
f 69/549/6 11/550/6 71/130/6
f 9/551/6 11/552/6 69/553/6
f 36/554/6 82/555/6 34/556/6
f 81/148/6 82/555/6 36/554/6
f 60/397/6 48/557/6 58/558/6
f 43/399/6 48/557/6 60/397/6
f 64/559/6 54/560/6 62/561/6
f 45/562/6 54/560/6 64/559/6
f 68/393/6 129/563/6 66/564/6
f 131/246/6 129/565/6 68/395/6
f 14/566/6 108/567/6 55/568/6
f 74/569/6 14/570/6 55/571/6
f 66/191/6 108/190/6 14/572/6
f 56/573/6 74/574/6 55/575/6
f 16/377/6 66/376/6 14/576/6
f 76/137/6 74/577/6 56/380/6
f 124/367/6 141/578/6 134/579/6
f 143/275/6 141/580/6 124/225/6
f 103/581/6 124/582/6 105/583/6
f 122/226/6 124/584/6 103/585/6
